<?xml version="1.0" encoding="utf-8"?>
<!-- Generator: Adobe Illustrator 16.0.3, SVG Export Plug-In . SVG Version: 6.00 Build 0)  -->
<!DOCTYPE svg PUBLIC "-//W3C//DTD SVG 1.1//EN" "http://www.w3.org/Graphics/SVG/1.1/DTD/svg11.dtd">
<svg version="1.1" id="Capa_1" xmlns="http://www.w3.org/2000/svg" xmlns:xlink="http://www.w3.org/1999/xlink" x="0px" y="0px"
	 width="300.682px" height="188.465px" viewBox="0 0 300.682 188.465" enable-background="new 0 0 300.682 188.465"
	 xml:space="preserve">
<g>
	<g>
		<g>
			<polygon fill="#2E4593" points="300.618,0.424 300.618,188.706 300.583,188.741 0.256,188.741 0.256,0.424 			"/>
		</g>
	</g>
	<g>
		<g>
			<g>
				<polygon fill="#FCF5FF" points="300.618,169.099 300.618,188.706 300.583,188.741 269.321,188.741 177.138,130.939 
					167.915,125.156 157.02,118.315 153.368,116.022 142.296,109.095 138.169,106.483 134.696,104.333 127.722,99.978 
					125.474,98.55 122.071,96.435 89.345,75.874 74.621,66.651 0.256,20.049 0.256,0.424 0.512,0.053 1.102,0.424 31.51,0.424 
					125.474,59.317 134.696,65.118 137.165,66.651 151.896,75.874 153.368,76.81 159.012,80.353 167.915,85.925 169.423,86.894 
					177.138,91.726 184.666,96.435 204.882,109.095 219.614,118.315 				"/>
			</g>
		</g>
		<g>
			<g>
				<polygon fill="#F42525" points="300.646,188.159 300.707,188.847 280.614,188.741 177.138,123.869 168.321,118.315 
					167.915,118.069 159.012,112.497 153.633,109.095 143.812,102.94 134.696,97.261 133.408,96.435 127.722,92.854 125.474,91.462 
					100.63,75.874 85.941,66.651 0.256,12.925 0.256,0 0.512,0.053 1.102,0.424 106.766,66.651 121.454,75.874 125.474,78.396 
					134.696,84.196 138.169,86.366 143.812,89.911 154.216,96.435 167.915,105.003 169.423,105.972 174.438,109.095 
					177.138,110.804 189.127,118.315 				"/>
			</g>
		</g>
	</g>
	<g>
		<g>
			<g>
				<polygon fill="#FCF5FF" points="300.618,4.145 300.618,23.733 232.125,66.651 217.428,75.874 184.666,96.435 177.138,101.124 
					169.423,105.972 167.915,106.925 164.442,109.095 159.012,112.497 153.368,116.022 149.719,118.315 134.696,127.732 
					125.474,133.531 37.381,188.741 0.256,188.741 0.256,172.802 87.158,118.315 101.846,109.095 122.071,96.435 125.474,94.3 
					127.722,92.854 134.696,88.499 138.169,86.366 153.368,76.81 154.85,75.874 167.915,67.692 169.573,66.651 177.138,61.909 
					275.228,0.424 298.256,0.424 				"/>
			</g>
		</g>
		<g>
			<g>
				<polygon fill="#F42525" points="299.843,5.114 201.682,66.651 186.958,75.874 177.138,82.046 169.423,86.894 167.915,87.847 
					154.216,96.435 143.812,102.94 138.169,106.483 134.696,108.653 133.99,109.095 125.474,114.454 119.267,118.315 7.018,188.741 
					0.256,188.741 0.256,179.925 98.461,118.315 113.185,109.095 125.474,101.388 127.722,99.978 133.408,96.435 134.696,95.587 
					143.812,89.911 159.012,80.353 166.135,75.874 167.915,74.78 177.138,68.981 180.857,66.651 286.478,0.424 296.925,0.424 
					300.618,0.424 300.646,4.55 				"/>
			</g>
		</g>
	</g>
	<g>
		<g>
			<rect y="66.651" fill="#FFFFFF" width="300.76" height="51.664"/>
		</g>
	</g>
	<g>
		<g>
			<rect y="75.874" fill="#F42525" width="300.76" height="33.221"/>
		</g>
	</g>
	<g>
		<g>
			<rect x="134.696" y="0.424" fill="#CD002A" width="33.219" height="188.317"/>
		</g>
	</g>
	<g>
		<g>
			<g>
				<polygon fill="#FFFFFF" points="167.828,118.315 177.066,118.315 177.066,188.741 125.395,188.741 125.395,118.315 
					134.626,118.315 134.626,66.651 125.395,66.651 125.395,0.424 177.066,0.424 177.066,66.651 167.828,66.651 				"/>
			</g>
		</g>
		<g>
			<g>
				<rect x="134.449" y="0.424" fill="#F42525" width="33.555" height="188.317"/>
			</g>
		</g>
	</g>
</g>
</svg>
