<?xml version="1.0" encoding="utf-8"?>
<!-- Generator: Adobe Illustrator 16.0.3, SVG Export Plug-In . SVG Version: 6.00 Build 0)  -->
<!DOCTYPE svg PUBLIC "-//W3C//DTD SVG 1.1//EN" "http://www.w3.org/Graphics/SVG/1.1/DTD/svg11.dtd">
<svg version="1.1" id="Capa_1" xmlns="http://www.w3.org/2000/svg" xmlns:xlink="http://www.w3.org/1999/xlink" x="0px" y="0px"
	 width="300.682px" height="188.465px" viewBox="0 0 300.682 188.465" enable-background="new 0 0 300.682 188.465"
	 xml:space="preserve">
<g>
	<g>
		<g>
			<g>
				<g>
					<rect x="0.682" y="57.985" fill="#DB2E2E" width="300" height="14.544"/>
				</g>
				<g>
					<rect x="0.682" y="28.984" fill="#DB2E2E" width="300" height="14.527"/>
				</g>
				<g>
					<rect x="0.682" fill="#DB2E2E" width="300" height="14.527"/>
				</g>
				<g>
					<rect x="0.682" y="87.004" fill="#DB2E2E" width="300" height="14.544"/>
				</g>
				<g>
					<rect x="0.682" y="115.971" fill="#DB2E2E" width="300" height="14.543"/>
				</g>
				<g>
					<rect x="0.682" y="144.99" fill="#DB2E2E" width="300" height="14.525"/>
				</g>
				<g>
					<rect x="0.682" y="173.939" fill="#DB2E2E" width="300" height="14.525"/>
				</g>
			</g>
		</g>
		<g>
			<rect x="0.682" y="43.494" fill="#FFFFFF" width="300" height="14.525"/>
		</g>
		<g>
			<rect x="0.682" y="14.51" fill="#FFFFFF" width="300" height="14.527"/>
		</g>
		<g>
			<rect x="0.682" y="72.513" fill="#FFFFFF" width="300" height="14.525"/>
		</g>
		<g>
			<rect x="0.682" y="101.461" fill="#FFFFFF" width="300" height="14.527"/>
		</g>
		<g>
			<rect x="0.682" y="130.48" fill="#FFFFFF" width="300" height="14.527"/>
		</g>
		<g>
			<rect x="0.682" y="159.48" fill="#FFFFFF" width="300" height="14.525"/>
		</g>
	</g>
	<g>
		<rect x="0.682" y="0.47" fill="#2E4593" width="112.18" height="87.769"/>
	</g>
	<g>
		<g>
			<g>
				<g>
					<polygon fill="#FFFFFF" points="94.438,17.898 95.626,21.304 92.787,19.166 92.779,19.148 92.77,19.166 89.949,21.304 
						91.129,17.898 91.162,17.881 91.146,17.881 88.222,15.883 91.735,15.883 92.702,12.459 93.787,15.883 93.787,15.883 
						93.797,15.883 97.354,15.883 94.412,17.881 94.403,17.881 					"/>
				</g>
			</g>
			<g>
				<g>
					<polygon fill="#FFFFFF" points="94.438,35.639 95.626,39.027 92.787,36.908 92.779,36.891 92.77,36.908 89.949,39.027 
						91.129,35.639 91.162,35.622 91.146,35.622 88.222,33.605 91.735,33.605 92.702,30.184 93.787,33.605 93.787,33.623 
						93.797,33.605 97.354,33.605 94.412,35.622 94.403,35.622 					"/>
				</g>
			</g>
			<g>
				<g>
					<polygon fill="#FFFFFF" points="94.438,53.381 95.626,56.77 92.787,54.632 92.779,54.614 92.77,54.632 89.949,56.77 
						91.129,53.381 91.162,53.346 91.146,53.346 88.222,51.348 91.735,51.348 92.702,47.924 93.787,51.348 93.787,51.348 
						93.797,51.348 97.354,51.348 94.412,53.346 94.403,53.346 					"/>
				</g>
			</g>
			<g>
				<g>
					<polygon fill="#FFFFFF" points="94.438,71.104 95.626,74.492 92.787,72.373 92.779,72.355 92.77,72.373 89.949,74.492 
						91.129,71.104 91.162,71.088 91.146,71.088 88.222,69.071 91.735,69.071 92.702,65.647 93.787,69.071 93.787,69.089 
						93.797,69.071 97.354,69.071 94.412,71.088 94.403,71.088 					"/>
				</g>
			</g>
		</g>
		<g>
			<g>
				<g>
					<polygon fill="#FFFFFF" points="75.885,17.898 77.072,21.304 74.234,19.166 74.227,19.148 74.218,19.166 71.379,21.304 
						72.576,17.898 72.602,17.881 72.594,17.881 69.669,15.883 73.184,15.883 74.148,12.459 75.234,15.883 75.227,15.883 
						75.243,15.883 78.783,15.883 75.859,17.881 75.842,17.881 					"/>
				</g>
			</g>
			<g>
				<g>
					<polygon fill="#FFFFFF" points="75.885,35.639 77.072,39.027 74.234,36.908 74.227,36.891 74.218,36.908 71.379,39.027 
						72.576,35.639 72.602,35.622 72.594,35.622 69.669,33.605 73.184,33.605 74.148,30.184 75.234,33.605 75.227,33.623 
						75.243,33.605 78.783,33.605 75.859,35.622 75.842,35.622 					"/>
				</g>
			</g>
			<g>
				<g>
					<polygon fill="#FFFFFF" points="75.885,53.381 77.072,56.77 74.234,54.632 74.227,54.614 74.218,54.632 71.379,56.77 
						72.576,53.381 72.602,53.346 72.594,53.346 69.669,51.348 73.184,51.348 74.148,47.924 75.234,51.348 75.227,51.348 
						75.243,51.348 78.783,51.348 75.859,53.346 75.842,53.346 					"/>
				</g>
			</g>
			<g>
				<g>
					<polygon fill="#FFFFFF" points="75.885,71.104 77.072,74.492 74.234,72.373 74.227,72.355 74.218,72.373 71.379,74.492 
						72.576,71.104 72.602,71.088 72.594,71.088 69.669,69.071 73.184,69.071 74.148,65.647 75.234,69.071 75.227,69.089 
						75.243,69.071 78.783,69.071 75.859,71.088 75.842,71.088 					"/>
				</g>
			</g>
		</g>
		<g>
			<g>
				<g>
					<polygon fill="#FFFFFF" points="57.323,17.898 58.52,21.304 55.674,19.166 55.664,19.148 55.664,19.166 52.826,21.304 
						54.006,17.898 54.049,17.881 54.023,17.881 51.1,15.883 54.621,15.883 55.579,12.459 56.674,15.883 56.664,15.883 
						56.682,15.883 60.23,15.883 57.298,17.881 57.289,17.881 					"/>
				</g>
			</g>
			<g>
				<g>
					<polygon fill="#FFFFFF" points="57.323,35.639 58.52,39.027 55.674,36.908 55.664,36.891 55.664,36.908 52.826,39.027 
						54.006,35.639 54.049,35.622 54.023,35.622 51.1,33.605 54.621,33.605 55.579,30.184 56.674,33.605 56.664,33.623 
						56.682,33.605 60.23,33.605 57.298,35.622 57.289,35.622 					"/>
				</g>
			</g>
			<g>
				<g>
					<polygon fill="#FFFFFF" points="57.323,53.381 58.52,56.77 55.674,54.632 55.664,54.614 55.664,54.632 52.826,56.77 
						54.006,53.381 54.049,53.346 54.023,53.346 51.1,51.348 54.621,51.348 55.579,47.924 56.674,51.348 56.664,51.348 
						56.682,51.348 60.23,51.348 57.298,53.346 57.289,53.346 					"/>
				</g>
			</g>
			<g>
				<g>
					<polygon fill="#FFFFFF" points="57.323,71.104 58.52,74.492 55.674,72.373 55.664,72.355 55.664,72.373 52.826,74.492 
						54.006,71.104 54.049,71.088 54.023,71.088 51.1,69.071 54.621,69.071 55.579,65.647 56.674,69.071 56.664,69.089 
						56.682,69.071 60.23,69.071 57.298,71.088 57.289,71.088 					"/>
				</g>
			</g>
		</g>
		<g>
			<g>
				<g>
					<polygon fill="#FFFFFF" points="39.078,17.898 40.258,21.304 37.42,19.166 37.42,19.148 37.42,19.166 34.572,21.304 
						35.761,17.898 35.795,17.881 35.777,17.881 32.854,15.883 36.377,15.883 37.334,12.459 38.429,15.883 38.411,15.883 
						38.429,15.883 41.977,15.883 39.053,17.881 39.044,17.881 					"/>
				</g>
			</g>
			<g>
				<g>
					<polygon fill="#FFFFFF" points="39.078,35.639 40.258,39.027 37.42,36.908 37.42,36.891 37.42,36.908 34.572,39.027 
						35.761,35.639 35.795,35.622 35.777,35.622 32.854,33.605 36.377,33.605 37.334,30.184 38.429,33.605 38.411,33.623 
						38.429,33.605 41.977,33.605 39.053,35.622 39.044,35.622 					"/>
				</g>
			</g>
			<g>
				<g>
					<polygon fill="#FFFFFF" points="39.078,53.381 40.258,56.77 37.42,54.632 37.42,54.614 37.42,54.632 34.572,56.77 
						35.761,53.381 35.795,53.346 35.777,53.346 32.854,51.348 36.377,51.348 37.334,47.924 38.429,51.348 38.411,51.348 
						38.429,51.348 41.977,51.348 39.053,53.346 39.044,53.346 					"/>
				</g>
			</g>
			<g>
				<g>
					<polygon fill="#FFFFFF" points="39.078,71.104 40.258,74.492 37.42,72.373 37.42,72.355 37.42,72.373 34.572,74.492 
						35.761,71.104 35.795,71.088 35.777,71.088 32.854,69.071 36.377,69.071 37.334,65.647 38.429,69.071 38.411,69.089 
						38.429,69.071 41.977,69.071 39.053,71.088 39.044,71.088 					"/>
				</g>
			</g>
		</g>
		<g>
			<g>
				<g>
					<polygon fill="#FFFFFF" points="20.808,17.898 21.996,21.304 19.157,19.166 19.148,19.148 19.148,19.166 16.319,21.304 
						17.498,17.898 17.533,17.881 17.516,17.881 14.592,15.883 18.114,15.883 19.072,12.459 20.166,15.883 20.166,15.883 
						20.166,15.883 23.723,15.883 20.781,17.881 20.773,17.881 					"/>
				</g>
			</g>
			<g>
				<g>
					<polygon fill="#FFFFFF" points="20.808,35.639 21.996,39.027 19.157,36.908 19.148,36.891 19.148,36.908 16.319,39.027 
						17.498,35.639 17.533,35.622 17.516,35.622 14.592,33.605 18.114,33.605 19.072,30.184 20.166,33.605 20.166,33.623 
						20.166,33.605 23.723,33.605 20.781,35.622 20.773,35.622 					"/>
				</g>
			</g>
			<g>
				<g>
					<polygon fill="#FFFFFF" points="20.808,53.381 21.996,56.77 19.157,54.632 19.148,54.614 19.148,54.632 16.319,56.77 
						17.498,53.381 17.533,53.346 17.516,53.346 14.592,51.348 18.114,51.348 19.072,47.924 20.166,51.348 20.166,51.348 
						20.166,51.348 23.723,51.348 20.781,53.346 20.773,53.346 					"/>
				</g>
			</g>
			<g>
				<g>
					<polygon fill="#FFFFFF" points="20.808,71.104 21.996,74.492 19.157,72.373 19.148,72.355 19.148,72.373 16.319,74.492 
						17.498,71.104 17.533,71.088 17.516,71.088 14.592,69.071 18.114,69.071 19.072,65.647 20.166,69.071 20.166,69.089 
						20.166,69.071 23.723,69.071 20.781,71.088 20.773,71.088 					"/>
				</g>
			</g>
		</g>
		<g>
			<g>
				<g>
					<polygon fill="#FFFFFF" points="103.44,26.76 104.619,30.148 101.781,28.028 101.781,28.011 101.781,28.028 98.943,30.148 
						100.123,26.76 100.166,26.725 100.141,26.725 97.216,24.727 100.738,24.727 101.696,21.304 102.781,24.727 102.781,24.744 
						102.79,24.727 106.348,24.727 103.414,26.725 103.406,26.725 					"/>
				</g>
			</g>
			<g>
				<g>
					<polygon fill="#FFFFFF" points="103.44,44.502 104.619,47.89 101.781,45.752 101.781,45.752 101.781,45.752 98.943,47.89 
						100.123,44.502 100.166,44.466 100.141,44.466 97.216,42.469 100.738,42.469 101.696,39.045 102.781,42.469 102.781,42.469 
						102.79,42.469 106.348,42.469 103.414,44.466 103.406,44.466 					"/>
				</g>
			</g>
			<g>
				<g>
					<polygon fill="#FFFFFF" points="103.44,62.242 104.619,65.647 101.781,63.511 101.781,63.494 101.781,63.511 98.943,65.647 
						100.123,62.242 100.166,62.226 100.141,62.226 97.216,60.209 100.738,60.227 101.696,56.803 102.781,60.209 102.781,60.227 
						102.79,60.227 106.348,60.209 103.414,62.226 103.406,62.226 					"/>
				</g>
			</g>
			<g>
				<g>
					<polygon fill="#FFFFFF" points="103.44,80.001 104.619,83.407 101.781,81.27 101.781,81.252 101.781,81.27 98.943,83.407 
						100.123,80.001 100.166,79.983 100.141,79.983 97.216,77.984 100.738,77.984 101.696,74.563 102.781,77.984 102.781,78.002 
						102.79,77.984 106.348,77.984 103.414,79.983 103.406,79.983 					"/>
				</g>
			</g>
			<g>
				<g>
					<polygon fill="#FFFFFF" points="103.44,9.105 104.619,12.494 101.781,10.374 101.781,10.356 101.781,10.374 98.943,12.494 
						100.123,9.105 100.166,9.07 100.141,9.07 97.216,7.072 100.738,7.072 101.696,3.649 102.781,7.072 102.781,7.09 102.79,7.072 
						106.348,7.072 103.414,9.07 103.406,9.07 					"/>
				</g>
			</g>
		</g>
		<g>
			<g>
				<g>
					<polygon fill="#FFFFFF" points="85.289,26.76 86.478,30.148 83.639,28.028 83.639,28.011 83.639,28.028 80.801,30.148 
						81.98,26.76 82.015,26.725 81.998,26.725 79.074,24.727 82.596,24.727 83.554,21.304 84.64,24.727 84.64,24.744 84.648,24.727 
						88.195,24.727 85.271,26.725 85.264,26.725 					"/>
				</g>
			</g>
			<g>
				<g>
					<polygon fill="#FFFFFF" points="85.289,44.502 86.478,47.89 83.639,45.752 83.639,45.752 83.639,45.752 80.801,47.89 
						81.98,44.502 82.015,44.466 81.998,44.466 79.074,42.469 82.596,42.469 83.554,39.045 84.64,42.469 84.64,42.469 
						84.648,42.469 88.195,42.469 85.271,44.466 85.264,44.466 					"/>
				</g>
			</g>
			<g>
				<g>
					<polygon fill="#FFFFFF" points="85.289,62.242 86.478,65.647 83.639,63.511 83.639,63.494 83.639,63.511 80.801,65.647 
						81.98,62.242 82.015,62.226 81.998,62.226 79.074,60.209 82.596,60.227 83.554,56.803 84.64,60.209 84.64,60.227 
						84.648,60.227 88.195,60.209 85.271,62.226 85.264,62.226 					"/>
				</g>
			</g>
			<g>
				<g>
					<polygon fill="#FFFFFF" points="85.289,80.001 86.478,83.407 83.639,81.27 83.639,81.252 83.639,81.27 80.801,83.407 
						81.98,80.001 82.015,79.983 81.998,79.983 79.074,77.984 82.596,77.984 83.554,74.563 84.64,77.984 84.64,78.002 
						84.648,77.984 88.195,77.984 85.271,79.983 85.264,79.983 					"/>
				</g>
			</g>
			<g>
				<g>
					<polygon fill="#FFFFFF" points="85.289,9.105 86.478,12.494 83.639,10.374 83.639,10.356 83.639,10.374 80.801,12.494 
						81.98,9.105 82.015,9.07 81.998,9.07 79.074,7.072 82.596,7.072 83.554,3.649 84.64,7.072 84.64,7.09 84.648,7.072 
						88.195,7.072 85.271,9.07 85.264,9.07 					"/>
				</g>
			</g>
		</g>
		<g>
			<g>
				<g>
					<polygon fill="#FFFFFF" points="66.42,26.76 67.617,30.148 64.77,28.028 64.762,28.011 64.762,28.028 61.932,30.148 
						63.119,26.76 63.146,26.725 63.129,26.725 60.213,24.727 63.719,24.727 64.693,21.304 65.771,24.727 65.771,24.744 
						65.787,24.727 69.327,24.727 66.402,26.725 66.386,26.725 					"/>
				</g>
			</g>
			<g>
				<g>
					<polygon fill="#FFFFFF" points="66.42,44.502 67.617,47.89 64.77,45.752 64.762,45.752 64.762,45.752 61.932,47.89 
						63.119,44.502 63.146,44.466 63.129,44.466 60.213,42.469 63.719,42.469 64.693,39.045 65.771,42.469 65.771,42.469 
						65.787,42.469 69.327,42.469 66.402,44.466 66.386,44.466 					"/>
				</g>
			</g>
			<g>
				<g>
					<polygon fill="#FFFFFF" points="66.42,62.242 67.617,65.647 64.77,63.511 64.762,63.494 64.762,63.511 61.932,65.647 
						63.119,62.242 63.146,62.226 63.129,62.226 60.213,60.209 63.719,60.227 64.693,56.803 65.771,60.209 65.771,60.227 
						65.787,60.227 69.327,60.209 66.402,62.226 66.386,62.226 					"/>
				</g>
			</g>
			<g>
				<g>
					<polygon fill="#FFFFFF" points="66.42,80.001 67.617,83.407 64.77,81.27 64.762,81.252 64.762,81.27 61.932,83.407 
						63.119,80.001 63.146,79.983 63.129,79.983 60.213,77.984 63.719,77.984 64.693,74.563 65.771,77.984 65.771,78.002 
						65.787,77.984 69.327,77.984 66.402,79.983 66.386,79.983 					"/>
				</g>
			</g>
			<g>
				<g>
					<polygon fill="#FFFFFF" points="66.42,9.105 67.617,12.494 64.77,10.374 64.762,10.356 64.762,10.374 61.932,12.494 
						63.119,9.105 63.146,9.07 63.129,9.07 60.213,7.072 63.719,7.072 64.693,3.649 65.771,7.072 65.771,7.09 65.787,7.072 
						69.327,7.072 66.402,9.07 66.386,9.07 					"/>
				</g>
			</g>
		</g>
		<g>
			<g>
				<g>
					<polygon fill="#FFFFFF" points="47.97,26.76 49.15,30.148 46.328,28.028 46.311,28.011 46.311,28.028 43.473,30.148 
						44.661,26.76 44.688,26.725 44.67,26.725 41.764,24.727 45.269,24.727 46.227,21.304 47.32,24.727 47.32,24.744 47.32,24.727 
						50.877,24.727 47.944,26.725 47.936,26.725 					"/>
				</g>
			</g>
			<g>
				<g>
					<polygon fill="#FFFFFF" points="47.97,44.502 49.15,47.89 46.328,45.752 46.311,45.752 46.311,45.752 43.473,47.89 
						44.661,44.502 44.688,44.466 44.67,44.466 41.764,42.469 45.269,42.469 46.227,39.045 47.32,42.469 47.32,42.469 47.32,42.469 
						50.877,42.469 47.944,44.466 47.936,44.466 					"/>
				</g>
			</g>
			<g>
				<g>
					<polygon fill="#FFFFFF" points="47.97,62.242 49.15,65.647 46.328,63.511 46.311,63.494 46.311,63.511 43.473,65.647 
						44.661,62.242 44.688,62.226 44.67,62.226 41.764,60.209 45.269,60.227 46.227,56.803 47.32,60.209 47.32,60.227 47.32,60.227 
						50.877,60.209 47.944,62.226 47.936,62.226 					"/>
				</g>
			</g>
			<g>
				<g>
					<polygon fill="#FFFFFF" points="47.97,80.001 49.15,83.407 46.328,81.27 46.311,81.252 46.311,81.27 43.473,83.407 
						44.661,80.001 44.688,79.983 44.67,79.983 41.764,77.984 45.269,77.984 46.227,74.563 47.32,77.984 47.32,78.002 47.32,77.984 
						50.877,77.984 47.944,79.983 47.936,79.983 					"/>
				</g>
			</g>
			<g>
				<g>
					<polygon fill="#FFFFFF" points="47.97,9.105 49.15,12.494 46.328,10.374 46.311,10.356 46.311,10.374 43.473,12.494 
						44.661,9.105 44.688,9.07 44.67,9.07 41.764,7.072 45.269,7.072 46.227,3.649 47.32,7.072 47.32,7.09 47.32,7.072 
						50.877,7.072 47.944,9.07 47.936,9.07 					"/>
				</g>
			</g>
		</g>
		<g>
			<g>
				<g>
					<polygon fill="#FFFFFF" points="29.904,26.76 31.093,30.148 28.254,28.028 28.246,28.011 28.237,28.028 25.407,30.148 
						26.596,26.76 26.63,26.725 26.613,26.725 23.689,24.727 27.194,24.727 28.169,21.304 29.255,24.727 29.255,24.744 
						29.264,24.727 32.811,24.727 29.879,26.725 29.87,26.725 					"/>
				</g>
			</g>
			<g>
				<g>
					<polygon fill="#FFFFFF" points="29.904,44.502 31.093,47.89 28.254,45.752 28.246,45.752 28.237,45.752 25.407,47.89 
						26.596,44.502 26.63,44.466 26.613,44.466 23.689,42.469 27.194,42.469 28.169,39.045 29.255,42.469 29.255,42.469 
						29.264,42.469 32.811,42.469 29.879,44.466 29.87,44.466 					"/>
				</g>
			</g>
			<g>
				<g>
					<polygon fill="#FFFFFF" points="29.904,62.242 31.093,65.647 28.254,63.511 28.246,63.494 28.237,63.511 25.407,65.647 
						26.596,62.242 26.63,62.226 26.613,62.226 23.689,60.209 27.194,60.227 28.169,56.803 29.255,60.209 29.255,60.227 
						29.264,60.227 32.811,60.209 29.879,62.226 29.87,62.226 					"/>
				</g>
			</g>
			<g>
				<g>
					<polygon fill="#FFFFFF" points="29.904,80.001 31.093,83.407 28.254,81.27 28.246,81.252 28.237,81.27 25.407,83.407 
						26.596,80.001 26.63,79.983 26.613,79.983 23.689,77.984 27.194,77.984 28.169,74.563 29.255,77.984 29.255,78.002 
						29.264,77.984 32.811,77.984 29.879,79.983 29.87,79.983 					"/>
				</g>
			</g>
			<g>
				<g>
					<polygon fill="#FFFFFF" points="29.904,9.105 31.093,12.494 28.254,10.374 28.246,10.356 28.237,10.374 25.407,12.494 
						26.596,9.105 26.63,9.07 26.613,9.07 23.689,7.072 27.194,7.072 28.169,3.649 29.255,7.072 29.255,7.09 29.264,7.072 
						32.811,7.072 29.879,9.07 29.87,9.07 					"/>
				</g>
			</g>
		</g>
		<g>
			<g>
				<g>
					<polygon fill="#FFFFFF" points="11.531,26.76 12.719,30.148 9.89,28.028 9.873,28.011 9.873,28.028 7.033,30.148 8.23,26.76 
						8.257,26.725 8.248,26.725 5.307,24.727 8.83,24.727 9.787,21.304 10.881,24.727 10.881,24.744 10.881,24.727 14.438,24.727 
						11.514,26.725 11.497,26.725 					"/>
				</g>
			</g>
			<g>
				<g>
					<polygon fill="#FFFFFF" points="11.531,44.502 12.719,47.89 9.89,45.752 9.873,45.752 9.873,45.752 7.033,47.89 8.23,44.502 
						8.257,44.466 8.248,44.466 5.307,42.469 8.83,42.469 9.787,39.045 10.881,42.469 10.881,42.469 10.881,42.469 14.438,42.469 
						11.514,44.466 11.497,44.466 					"/>
				</g>
			</g>
			<g>
				<g>
					<polygon fill="#FFFFFF" points="11.531,62.242 12.719,65.647 9.89,63.511 9.873,63.494 9.873,63.511 7.033,65.647 8.23,62.242 
						8.257,62.226 8.248,62.226 5.307,60.209 8.83,60.227 9.787,56.803 10.881,60.209 10.881,60.227 10.881,60.227 14.438,60.209 
						11.514,62.226 11.497,62.226 					"/>
				</g>
			</g>
			<g>
				<g>
					<polygon fill="#FFFFFF" points="11.531,80.001 12.719,83.407 9.89,81.27 9.873,81.252 9.873,81.27 7.033,83.407 8.23,80.001 
						8.257,79.983 8.248,79.983 5.307,77.984 8.83,77.984 9.787,74.563 10.881,77.984 10.881,78.002 10.881,77.984 14.438,77.984 
						11.514,79.983 11.497,79.983 					"/>
				</g>
			</g>
			<g>
				<g>
					<polygon fill="#FFFFFF" points="11.531,9.105 12.719,12.494 9.89,10.374 9.873,10.356 9.873,10.374 7.033,12.494 8.23,9.105 
						8.257,9.07 8.248,9.07 5.307,7.072 8.83,7.072 9.787,3.649 10.881,7.072 10.881,7.09 10.881,7.072 14.438,7.072 11.514,9.07 
						11.497,9.07 					"/>
				</g>
			</g>
		</g>
	</g>
</g>
</svg>
